<svg width="1440" height="1440" viewBox="0 0 1440 1440" fill="none" xmlns="http://www.w3.org/2000/svg">
<path d="M1062 766C1062 770.418 1065.58 774 1070 774H1270C1274.42 774 1278 770.418 1278 766V646C1278 637.163 1285.16 630 1294 630H1334C1342.84 630 1350 637.163 1350 646V937C1350 946.389 1342.39 954 1333 954H1294C1285.16 954 1278 946.837 1278 938V854C1278 849.582 1274.42 846 1270 846H1006C997.163 846 990 838.837 990 830V718C990 709.163 997.163 702 1006 702H1062V766ZM1134 686C1134 694.837 1126.84 702 1118 702H1062V646C1062 637.163 1069.16 630 1078 630H1134V686ZM1206 614C1206 622.837 1198.84 630 1190 630H1134V574C1134 565.163 1141.16 558 1150 558H1206V614ZM1334 486C1342.84 486 1350 493.163 1350 502V542C1350 550.837 1342.84 558 1334 558H1206V502C1206 493.163 1213.16 486 1222 486H1334Z" fill="#0A0A0A"/>
<path d="M612 766C612 770.418 615.582 774 620 774H683V874C683 878.418 686.582 882 691 882H828V938C828 946.837 820.837 954 812 954H628C619.163 954 612 946.837 612 938V890C612 885.582 608.418 882 604 882H556C547.163 882 540 874.837 540 866V574C540 565.163 547.163 558 556 558H612V766ZM812 486C820.837 486 828 493.163 828 502V550C828 554.418 831.582 558 836 558H884C892.837 558 900 565.163 900 574V866C900 874.837 892.837 882 884 882H828V674C828 669.582 824.418 666 820 666H756V566C756 561.582 752.418 558 748 558H612V502C612 493.163 619.163 486 628 486H812ZM755 758C755 766.837 747.837 774 739 774H683V682C683 673.163 690.163 666 699 666H755V758Z" fill="#0A0A0A"/>
<path d="M162 766C162 770.418 165.582 774 170 774H370C374.418 774 378 770.418 378 766V646C378 637.163 385.163 630 394 630H434C442.837 630 450 637.163 450 646V937C450 946.389 442.389 954 433 954H394C385.163 954 378 946.837 378 938V854C378 849.582 374.418 846 370 846H106C97.1634 846 90 838.837 90 830V718C90 709.163 97.1634 702 106 702H162V766ZM234 686C234 694.837 226.837 702 218 702H162V646C162 637.163 169.163 630 178 630H234V686ZM306 614C306 622.837 298.837 630 290 630H234V574C234 565.163 241.163 558 250 558H306V614ZM434 486C442.837 486 450 493.163 450 502V542C450 550.837 442.837 558 434 558H306V502C306 493.163 313.163 486 322 486H434Z" fill="#0A0A0A"/>
</svg>
