<svg width="1440" height="1440" viewBox="0 0 1440 1440" fill="none" xmlns="http://www.w3.org/2000/svg">
<path d="M1062 766C1062 770.418 1065.58 774 1070 774H1133V874C1133 878.418 1136.58 882 1141 882H1278V938C1278 946.837 1270.84 954 1262 954H1078C1069.16 954 1062 946.837 1062 938V890C1062 885.582 1058.42 882 1054 882H1006C997.163 882 990 874.837 990 866V574C990 565.163 997.163 558 1006 558H1062V766ZM1262 486C1270.84 486 1278 493.163 1278 502V550C1278 554.418 1281.58 558 1286 558H1334C1342.84 558 1350 565.163 1350 574V866C1350 874.837 1342.84 882 1334 882H1278V674C1278 669.582 1274.42 666 1270 666H1206V566C1206 561.582 1202.42 558 1198 558H1062V502C1062 493.163 1069.16 486 1078 486H1262ZM1205 758C1205 766.837 1197.84 774 1189 774H1133V682C1133 673.163 1140.16 666 1149 666H1205V758Z" fill="#0A0A0A"/>
<path d="M612 766C612 770.418 615.582 774 620 774H683V874C683 878.418 686.582 882 691 882H828V938C828 946.837 820.837 954 812 954H628C619.163 954 612 946.837 612 938V890C612 885.582 608.418 882 604 882H556C547.163 882 540 874.837 540 866V574C540 565.163 547.163 558 556 558H612V766ZM812 486C820.837 486 828 493.163 828 502V550C828 554.418 831.582 558 836 558H884C892.837 558 900 565.163 900 574V866C900 874.837 892.837 882 884 882H828V674C828 669.582 824.418 666 820 666H756V566C756 561.582 752.418 558 748 558H612V502C612 493.163 619.163 486 628 486H812ZM755 758C755 766.837 747.837 774 739 774H683V682C683 673.163 690.163 666 699 666H755V758Z" fill="#0A0A0A"/>
<path d="M378 938C378 946.837 370.837 954 362 954H178C169.163 954 162 946.837 162 938V882H378V938ZM162 882H106C97.1634 882 90 874.837 90 866V826C90 817.163 97.1634 810 106 810H146C154.837 810 162 817.163 162 826V882ZM450 866C450 874.837 442.837 882 434 882H378V738H434C442.837 738 450 745.163 450 754V866ZM362 666C370.837 666 378 673.163 378 682V738H178C169.163 738 162 730.837 162 722V666H362ZM450 542C450 550.837 442.837 558 434 558H170C165.582 558 162 561.582 162 566V666H106C97.1634 666 90 658.837 90 650V502C90 493.163 97.1634 486 106 486H434C442.837 486 450 493.163 450 502V542Z" fill="#0A0A0A"/>
</svg>
