<svg width="1024" height="1024" viewBox="0 0 1024 1024" fill="none" xmlns="http://www.w3.org/2000/svg">
<rect width="1024" height="1024" rx="124" fill="#121212"/>
<path d="M740 306.745C740 256.628 699.362 216 649.232 216H539.052C523.515 216 510.919 228.592 510.919 244.125V369.364C510.919 384.897 523.515 397.489 539.052 397.489H649.232C699.362 397.489 740 356.861 740 306.745Z" fill="#FAFAFA"/>
<path d="M465.536 467.31C465.536 455.001 455.554 445.022 443.242 445.022C355.295 445.022 284 516.299 284 604.223V763.424C284 788.043 303.963 808 328.588 808H435.28C451.99 808 465.536 794.457 465.536 777.752V467.31Z" fill="#FAFAFA"/>
<path d="M284 246.248C284 229.543 297.546 216 314.256 216H435.28C451.99 216 465.536 229.543 465.536 246.248V367.241C465.536 383.947 451.99 397.489 435.28 397.489H314.256C297.546 397.489 284 383.947 284 367.241V246.248Z" fill="#FAFAFA"/>
</svg>
