<svg width="1054" height="96" viewBox="0 0 1054 96" fill="none" xmlns="http://www.w3.org/2000/svg">
<g clip-path="url(#clip0_9_43)">
<path d="M28.2843 68.9952C26.0752 68.9952 24.2843 70.7861 24.2843 72.9952V94.8375H0.893402V56.905C0.893402 52.4867 4.47512 48.905 8.8934 48.905H75.9055C80.4469 48.905 84.646 47.7733 87.7703 45.5872C90.9387 43.3702 92.9903 40.0565 92.9903 35.9549C92.9903 31.5942 91.32 28.1151 88.1512 25.7991C85.0792 23.5538 80.8266 22.5668 75.9055 22.5668H0.893402L0.893311 1.16251H73.656C83.539 1.16251 94.5104 2.89366 102.94 7.87428C111.233 12.7737 117.175 20.8623 117.175 34.0569C117.175 48.4653 109.076 60.0795 95.5877 63.0562L92.6611 63.702L98.6803 70.1784C100.357 71.8702 102.332 74.0065 104.871 76.8394L105.163 77.1539L105.157 77.1593C105.726 77.795 106.322 78.4651 106.95 79.1721L120.383 94.8375H90.069L66.3528 68.9952H28.2843Z" fill="currentColor"/>
<path d="M218.062 34.484C216.518 31.971 212.878 31.9364 211.286 34.4196L172.046 95.6405H144.383L199.163 10.4004L199.167 10.3955C202.71 4.95204 207.604 0.359497 215.218 0.359497C222.463 0.359497 227.347 4.54989 230.99 10.371L284.384 95.6405H256.666L241.233 71.7159L241.22 71.6959C239.096 68.5714 235.894 63.4288 233.14 59.0045L233.072 58.8955C232.799 58.4574 232.531 58.0266 232.269 57.6058L232.265 57.6004L218.062 34.484Z" fill="currentColor"/>
<path d="M366.884 64.25L308.384 0.25H336.047L375.77 41.8789C377.369 43.5544 380.053 43.5262 381.616 41.8174L396.266 25.8018L396.27 25.7979C396.532 25.5153 396.8 25.2259 397.073 24.9316L397.141 24.8584C399.895 21.8868 403.096 18.4327 405.22 16.334L405.234 16.3203L420.667 0.25H448.384L389.884 64.25V91.75C389.884 93.9591 388.093 95.75 385.884 95.75H370.884C368.675 95.75 366.884 93.9591 366.884 91.75V64.25Z" fill="currentColor"/>
<path d="M472.384 73.4332V38.9438H487.907C492.326 38.9438 495.907 42.5255 495.907 46.9438V69.4332C495.907 71.6424 497.698 73.4332 499.907 73.4332H536.445C552.17 73.4332 564.646 62.654 564.646 47.635C564.646 40.0693 561.665 33.6761 556.573 29.1971C551.502 24.7371 544.457 22.2747 536.445 22.2747H495.907H472.384V1.16253H536.445C566.162 1.16253 587.772 21.8478 587.772 48.949C587.772 75.8161 566.523 94.8375 536.445 94.8375H480.384C475.966 94.8375 472.384 91.2558 472.384 86.8375V73.4332Z" fill="currentColor"/>
<path d="M635.163 94.8375V9.1625C635.163 4.74422 631.582 1.16251 627.163 1.16251H611.772V94.8375H635.163Z" fill="currentColor"/>
<path d="M775.299 58H680.163V74H767.163C771.582 74 775.163 77.5817 775.163 82V95H659.163V37H767.215C771.613 37 775.186 40.5504 775.215 44.9485L775.299 58ZM775.163 22H659.163V1H767.163C771.582 1 775.163 4.58172 775.163 9V22Z" fill="currentColor"/>
<path d="M799.299 1.25V95.25H822.283V22.5H872.299C882.24 22.5 890.299 30.5589 890.299 40.5V95.25H913.299V36.9082C913.299 16.9643 897.084 0.821115 877.141 0.908587L799.299 1.25Z" fill="currentColor"/>
<path d="M983.575 22.5668H937.299V1.16251H1045.6C1050.01 1.16251 1053.6 4.74423 1053.6 9.16251V22.5668H1006.97V94.8375H983.575V22.5668Z" fill="currentColor"/>
</g>
<defs>
<clipPath id="clip0_9_43">
<rect width="1052.7" height="95.5" fill="currentColor" transform="translate(0.893311 0.25)"/>
</clipPath>
</defs>
</svg>
