<svg width="24" height="24" viewBox="0 0 24 24" fill="none" xmlns="http://www.w3.org/2000/svg">
<path d="M20.4517 4.25001C20.4517 2.45508 18.9439 1 17.0838 1H12.9956C12.4191 1 11.9517 1.45099 11.9517 2.00731V6.49268C11.9517 7.04901 12.4191 7.5 12.9956 7.5H17.0838C18.9439 7.5 20.4517 6.04492 20.4517 4.25001Z" fill="#3F3F46"/>
<path d="M10.2641 10.3392C10.2641 9.88179 9.89298 9.51095 9.43513 9.51095C6.1648 9.51095 3.51367 12.1597 3.51367 15.4272V21.3434C3.51367 22.2583 4.25598 23 5.17169 23H9.13905C9.76043 23 10.2641 22.4968 10.2641 21.8759V10.3392Z" fill="#3F3F46"/>
<path d="M3.51367 2.08333C3.51367 1.48503 3.99871 1 4.597 1H8.93034C9.52866 1 10.0137 1.48503 10.0137 2.08333V6.41667C10.0137 7.01497 9.52866 7.5 8.93034 7.5H4.597C3.99871 7.5 3.51367 7.01497 3.51367 6.41667V2.08333Z" fill="#3F3F46"/>
</svg>
